<?xml version="1.0" encoding="utf-8"?>
<!-- Generator: Adobe Illustrator 24.1.2, SVG Export Plug-In . SVG Version: 6.00 Build 0)  -->
<svg version="1.1" id="Laag_1" xmlns="http://www.w3.org/2000/svg" xmlns:xlink="http://www.w3.org/1999/xlink" x="0px" y="0px"
	 viewBox="0 0 451.9 135.2" style="enable-background:new 0 0 451.9 135.2;" xml:space="preserve">
<style type="text/css">
	.st0{clip-path:url(#SVGID_2_);fill:#FFFFFF;}
</style>
<g>
	<defs>
		<rect id="SVGID_1_" x="17.6" y="21.8" width="413.5" height="91.2"/>
	</defs>
	<clipPath id="SVGID_2_">
		<use xlink:href="#SVGID_1_"  style="overflow:visible;"/>
	</clipPath>
	<path class="st0" d="M358.7,90c0,6.7,3.1,9,9.9,9c0,0,10.4,0,10.6,0c3.2,11.1,10.5,12.6,10.5,12.6h-22.9c-13.5,0-21.2-9-21.2-23.2
		V56.6h13.2V90z"/>
	<path class="st0" d="M64,52.3c0,0.2-33.2,0-33.2,0V90c0,6.7,3.1,9,9.9,9h24.1c0,0,3.8,7.7,13.6,12.6c0.3,0.2-39.4,0-39.4,0
		c-13.5,0-21.2-9-21.2-23.2V21.8h13.2v17.9h43.8C74.5,39.8,67.9,44.7,64,52.3"/>
	<path class="st0" d="M122.8,111.5V71.2c0-13.5-11.4-20.3-23.3-20.3c-14.5,0-23.6,11.5-23.6,25.1c0,13.3,9.7,24.5,23.5,24.5
		c7.5,0,13.6-4.2,18.1-9.9v15.6c-5.2,3.9-10.3,6.9-19.4,6.9c-20.6,0-35.3-17-35.3-38.1c0-20.5,14.1-36.6,37.1-36.6
		c22.1,0,36.2,13.5,36.2,34.1v39.2H122.8z"/>
	<path class="st0" d="M130.9,99h45c6.1,0,8.5-2.4,8.5-6.9c0-13.2-45.3-8.1-45.3-32.9c0-12.7,8.8-19.4,24.5-19.4h46.3v12.6h-48.5
		c-6.4,0-8.4,1.8-8.5,6.3c-0.2,12.4,45.3,7.2,45.3,32.9c0,13.6-9.6,20-22.3,20h-45V99z"/>
	<path class="st0" d="M311,78c-2.7,13.2-8.5,22.4-24.1,22.4c-6.4,0-12-2.3-16.1-6.2L321.6,61c-6.7-13.9-17.9-22.7-34.7-22.7
		c-19.9,0-37.2,15.3-37.2,37.4c0,6.2,1.4,10.8,3.7,15.7c0,0-8.6,7.6-13,7.6h-12c-6.7,0-9.9-2.2-9.9-9V52.3h33.6
		c0,0,4.9-9.4,13.3-12.6c0-0.1-46.9,0-46.9,0V21.8h-13.2v66.6c0,14.2,7.8,23.2,21.2,23.2h16.4c6.2,0,17.2-9.5,17.2-9.5
		c6.9,7,16.4,11,26.7,11c20.6,0,35.9-14.4,37.4-33.3L311,78z M263.5,75.6c0-14.7,9.9-24.8,23.5-24.8c8.1,0,11.8,2.4,16.3,6.9
		L265,84.2C264.2,81.6,263.5,78.8,263.5,75.6"/>
	<path class="st0" d="M406.4,99h-2.8c-6.7,0-9.9-2.2-9.9-9V52.3h25.7V39.8h-25.7V21.8h-13.2v10v56.6c0,14.2,7.8,23.2,21.2,23.2h10
		h4.6c9.6,0,13.6-5.6,14.7-12.6C431.1,99,406.5,99,406.4,99"/>
	<path class="st0" d="M370.4,40.1c0,0-12.1,0-12.2,0h-12.6v12.6h12.6v0C358.3,52.7,370.4,51.8,370.4,40.1"/>
</g>
</svg>
